# xmcd
#
# Track frame offsets:
#	150
#	14369
#	33542
#	52088
#	68447
#	85358
#	101242
#	119834
#	135726
#	150726
#	167302
#	189778
#	205153
#	221803
#	237173
#
# Disc length: 3420 seconds
#
# Revision: 1
# Processed by: cddbd v1.5.2PL0 Copyright (c) Steve Scherf et al.
# Submitted via: audiograbber 1.83.01
#
DISCID=d10d5a0f
DTITLE=Various Artist - More Best Country Hits of Today - CD2
DYEAR=2006
DGENRE=Country
TTITLE0=Montgomery Gentry (covered from) - She don't tell me to
TTITLE1=Keith Urban (covered from) - Tonight I wanna cry
TTITLE2=Brad Paisley and Dolly Parton (covered from) - When I get where I going
TTITLE3=Rascal Flatts (covered from) - Me and my Gang
TTITLE4=Carrie Underwood (covered from) - Jesus, take the Wheel
TTITLE5=Kenny Chesney (covered from) - Living in fast forward
TTITLE6=Toby Keith (covered from) - A little too late
TTITLE7=Rascal Flatts (covered from) - What hurts the Most
TTITLE8=Carrie Underwood (covered from) - Before he cheats
TTITLE9=Dierks Bentley (covered from) - Every Mile a Memory
TTITLE10=Tim McGraw (covered from) - Back when
TTITLE11=Gretchen Wilson (covered from) - Here for the Party
TTITLE12=Keith Urban (covered from) - Days go by
TTITLE13=Shania Twain (covered from) - Party for Two
TTITLE14=Brad Paisley and Alison Kraus (covered from) - Whiskey Lullabye
EXTD=Not Original Artist!\nPerformed by the Cream of the best Singers and Music
EXTD=ians from Nashville, Tennessee
EXTT0=
EXTT1=
EXTT2=
EXTT3=
EXTT4=
EXTT5=
EXTT6=
EXTT7=
EXTT8=
EXTT9=
EXTT10=
EXTT11=
EXTT12=
EXTT13=
EXTT14=
PLAYORDER=
